<svg width="39" height="39" viewBox="0 0 39 39" fill="none" xmlns="http://www.w3.org/2000/svg">
<g filter="url(#filter0_d_26_13)">
<rect x="2.5" y="1.5" width="34" height="34" rx="9.5" stroke="white" shape-rendering="crispEdges"/>
</g>
<path d="M10.2033 26V11.4545H18.6408V12.6477H11.5314V18.1236H18.1934V19.3168H11.5314V24.8068H18.7828V26H10.2033ZM23.0797 19.1818V26H21.8155V15.0909H23.0442V16.8026H23.1578C23.4135 16.2438 23.8113 15.7964 24.351 15.4602C24.8955 15.1193 25.5679 14.9489 26.3681 14.9489C27.102 14.9489 27.7459 15.1027 28.2999 15.4105C28.8586 15.7135 29.2918 16.161 29.5996 16.7528C29.9121 17.3447 30.0684 18.0715 30.0684 18.9332V26H28.8042V19.0114C28.8042 18.1165 28.5532 17.4086 28.0513 16.8878C27.5542 16.367 26.8865 16.1065 26.0485 16.1065C25.4756 16.1065 24.9666 16.2296 24.5215 16.4759C24.0764 16.7221 23.7237 17.0772 23.4632 17.5412C23.2076 18.0005 23.0797 18.5473 23.0797 19.1818Z" fill="white"/>
<defs>
<filter id="filter0_d_26_13" x="0" y="0" width="39" height="39" filterUnits="userSpaceOnUse" color-interpolation-filters="sRGB">
<feFlood flood-opacity="0" result="BackgroundImageFix"/>
<feColorMatrix in="SourceAlpha" type="matrix" values="0 0 0 0 0 0 0 0 0 0 0 0 0 0 0 0 0 0 127 0" result="hardAlpha"/>
<feOffset dy="1"/>
<feGaussianBlur stdDeviation="1"/>
<feComposite in2="hardAlpha" operator="out"/>
<feColorMatrix type="matrix" values="0 0 0 0 0 0 0 0 0 0 0 0 0 0 0 0 0 0 0.5 0"/>
<feBlend mode="normal" in2="BackgroundImageFix" result="effect1_dropShadow_26_13"/>
<feBlend mode="normal" in="SourceGraphic" in2="effect1_dropShadow_26_13" result="shape"/>
</filter>
</defs>
</svg>
