<svg width="39" height="39" viewBox="0 0 39 39" fill="none" xmlns="http://www.w3.org/2000/svg">
<g filter="url(#filter0_d_26_13)">
<rect x="2.5" y="1.5" width="34" height="34" rx="9.5" stroke="white" shape-rendering="crispEdges"/>
</g>
<path d="M8.92045 26V11.4545H18.7216V13.9901H11.9957V17.456H18.2173V19.9915H11.9957V23.4645H18.75V26H8.92045ZM24.1353 19.6932V26H21.1097V15.0909H23.9933V17.0156H24.1211C24.3626 16.3812 24.7674 15.8793 25.3356 15.5099C25.9038 15.1359 26.5927 14.9489 27.4023 14.9489C28.1599 14.9489 28.8204 15.1146 29.3839 15.446C29.9473 15.7775 30.3853 16.2509 30.6978 16.8665C31.0103 17.4773 31.1665 18.2064 31.1665 19.054V26H28.141V19.5938C28.1457 18.9261 27.9753 18.4053 27.6296 18.0312C27.284 17.6525 26.8081 17.4631 26.2021 17.4631C25.7949 17.4631 25.435 17.5507 25.1225 17.7259C24.8147 17.901 24.5733 18.1567 24.3981 18.4929C24.2276 18.8243 24.14 19.2244 24.1353 19.6932Z" fill="white"/>
<defs>
<filter id="filter0_d_26_13" x="0" y="0" width="39" height="39" filterUnits="userSpaceOnUse" color-interpolation-filters="sRGB">
<feFlood flood-opacity="0" result="BackgroundImageFix"/>
<feColorMatrix in="SourceAlpha" type="matrix" values="0 0 0 0 0 0 0 0 0 0 0 0 0 0 0 0 0 0 127 0" result="hardAlpha"/>
<feOffset dy="1"/>
<feGaussianBlur stdDeviation="1"/>
<feComposite in2="hardAlpha" operator="out"/>
<feColorMatrix type="matrix" values="0 0 0 0 0 0 0 0 0 0 0 0 0 0 0 0 0 0 0.5 0"/>
<feBlend mode="normal" in2="BackgroundImageFix" result="effect1_dropShadow_26_13"/>
<feBlend mode="normal" in="SourceGraphic" in2="effect1_dropShadow_26_13" result="shape"/>
</filter>
</defs>
</svg>
