<svg width="39" height="39" viewBox="0 0 39 39" fill="none" xmlns="http://www.w3.org/2000/svg">
<g filter="url(#filter0_d_26_104)">
<rect x="2.5" y="1.5" width="34" height="34" rx="9.5" stroke="white" shape-rendering="crispEdges"/>
</g>
<path d="M12.5666 26V11.4545H20.9828V12.6477H13.8947V18.1236H20.3223V19.3168H13.8947V26H12.5666ZM23.9054 26V15.0909H25.1341V16.767H25.2264C25.4442 16.2178 25.823 15.7751 26.3627 15.4389C26.9073 15.098 27.5228 14.9276 28.2093 14.9276C28.3135 14.9276 28.4295 14.9299 28.5574 14.9347C28.6852 14.9394 28.7917 14.9441 28.877 14.9489V16.2344C28.8201 16.2249 28.7207 16.2107 28.5787 16.1918C28.4366 16.1728 28.2827 16.1634 28.117 16.1634C27.5488 16.1634 27.0422 16.2841 26.5971 16.5256C26.1568 16.7623 25.8088 17.0914 25.5531 17.5128C25.2974 17.9342 25.1696 18.4148 25.1696 18.9545V26H23.9054Z" fill="white"/>
<defs>
<filter id="filter0_d_26_104" x="0" y="0" width="39" height="39" filterUnits="userSpaceOnUse" color-interpolation-filters="sRGB">
<feFlood flood-opacity="0" result="BackgroundImageFix"/>
<feColorMatrix in="SourceAlpha" type="matrix" values="0 0 0 0 0 0 0 0 0 0 0 0 0 0 0 0 0 0 127 0" result="hardAlpha"/>
<feOffset dy="1"/>
<feGaussianBlur stdDeviation="1"/>
<feComposite in2="hardAlpha" operator="out"/>
<feColorMatrix type="matrix" values="0 0 0 0 0 0 0 0 0 0 0 0 0 0 0 0 0 0 0.5 0"/>
<feBlend mode="normal" in2="BackgroundImageFix" result="effect1_dropShadow_26_104"/>
<feBlend mode="normal" in="SourceGraphic" in2="effect1_dropShadow_26_104" result="shape"/>
</filter>
</defs>
</svg>
