<svg width="39" height="39" viewBox="0 0 39 39" fill="none" xmlns="http://www.w3.org/2000/svg">
<g filter="url(#filter0_d_26_104)">
<rect x="2.5" y="1.5" width="34" height="34" rx="9.5" stroke="white" shape-rendering="crispEdges"/>
</g>
<path d="M11.4107 26V11.4545H21.0414V13.9901H14.486V17.456H20.4022V19.9915H14.486V26H11.4107ZM22.8773 26V15.0909H25.8105V16.9943H25.9242C26.123 16.3172 26.4569 15.8059 26.9256 15.4602C27.3944 15.1098 27.9341 14.9347 28.5449 14.9347C28.6964 14.9347 28.8598 14.9441 29.035 14.9631C29.2102 14.982 29.3641 15.008 29.4966 15.0412V17.7259C29.3546 17.6832 29.1581 17.6454 28.9071 17.6122C28.6562 17.5791 28.4266 17.5625 28.2182 17.5625C27.7731 17.5625 27.3754 17.6596 27.025 17.8537C26.6794 18.0431 26.4048 18.3082 26.2012 18.6491C26.0023 18.9901 25.9029 19.383 25.9029 19.8281V26H22.8773Z" fill="white"/>
<defs>
<filter id="filter0_d_26_104" x="0" y="0" width="39" height="39" filterUnits="userSpaceOnUse" color-interpolation-filters="sRGB">
<feFlood flood-opacity="0" result="BackgroundImageFix"/>
<feColorMatrix in="SourceAlpha" type="matrix" values="0 0 0 0 0 0 0 0 0 0 0 0 0 0 0 0 0 0 127 0" result="hardAlpha"/>
<feOffset dy="1"/>
<feGaussianBlur stdDeviation="1"/>
<feComposite in2="hardAlpha" operator="out"/>
<feColorMatrix type="matrix" values="0 0 0 0 0 0 0 0 0 0 0 0 0 0 0 0 0 0 0.5 0"/>
<feBlend mode="normal" in2="BackgroundImageFix" result="effect1_dropShadow_26_104"/>
<feBlend mode="normal" in="SourceGraphic" in2="effect1_dropShadow_26_104" result="shape"/>
</filter>
</defs>
</svg>
