<svg width="39" height="39" viewBox="0 0 39 39" fill="none" xmlns="http://www.w3.org/2000/svg">
<g filter="url(#filter0_d_26_68)">
<rect x="2.5" y="1.5" width="34" height="34" rx="9.5" stroke="white" shape-rendering="crispEdges"/>
</g>
<path d="M13.2049 26H8.94354V11.4545H13.4606C14.8479 11.4545 16.034 11.7434 17.0188 12.321C18.0084 12.8987 18.766 13.7273 19.2915 14.8068C19.8171 15.8864 20.0799 17.1813 20.0799 18.6918C20.0799 20.2164 19.81 21.5256 19.2702 22.6193C18.7352 23.7083 17.954 24.544 16.9265 25.1264C15.9038 25.7088 14.6632 26 13.2049 26ZM10.2717 24.8068H13.1268C14.3768 24.8068 15.4232 24.5606 16.266 24.0682C17.1088 23.5758 17.7409 22.8726 18.1623 21.9588C18.5837 21.045 18.7944 19.956 18.7944 18.6918C18.7897 17.437 18.5813 16.3575 18.1694 15.4531C17.7622 14.5488 17.1561 13.8551 16.3512 13.3722C15.551 12.8892 14.5614 12.6477 13.3825 12.6477H10.2717V24.8068ZM27.4467 26.2273C26.4287 26.2273 25.5481 25.9905 24.8047 25.517C24.0613 25.0388 23.486 24.3783 23.0788 23.5355C22.6764 22.688 22.4751 21.7126 22.4751 20.6094C22.4751 19.5109 22.6764 18.5355 23.0788 17.6832C23.486 16.8262 24.0471 16.1562 24.7621 15.6733C25.4818 15.1856 26.3127 14.9418 27.255 14.9418C27.8468 14.9418 28.4174 15.0507 28.9666 15.2685C29.5159 15.4815 30.0083 15.8106 30.4439 16.2557C30.8842 16.696 31.2322 17.2524 31.4879 17.9247C31.7436 18.5923 31.8714 19.383 31.8714 20.2969V20.9219H23.3487V19.8068H30.5788C30.5788 19.1061 30.4368 18.4763 30.1527 17.9176C29.8733 17.3542 29.4827 16.9091 28.9808 16.5824C28.4837 16.2557 27.9084 16.0923 27.255 16.0923C26.5637 16.0923 25.9553 16.277 25.4297 16.6463C24.9041 17.0156 24.4922 17.5033 24.1939 18.1094C23.9003 18.7154 23.7512 19.3783 23.7464 20.098V20.7656C23.7464 21.6321 23.8956 22.3897 24.1939 23.0384C24.4969 23.6823 24.9254 24.1818 25.4794 24.5369C26.0334 24.892 26.6892 25.0696 27.4467 25.0696C27.9628 25.0696 28.415 24.9891 28.8033 24.8281C29.1963 24.6671 29.5253 24.4517 29.7905 24.1818C30.0604 23.9072 30.264 23.6065 30.4013 23.2798L31.6016 23.6705C31.4358 24.1297 31.1636 24.5535 30.7848 24.9418C30.4107 25.33 29.942 25.6425 29.3786 25.8793C28.8198 26.1113 28.1759 26.2273 27.4467 26.2273Z" fill="white"/>
<defs>
<filter id="filter0_d_26_68" x="0" y="0" width="39" height="39" filterUnits="userSpaceOnUse" color-interpolation-filters="sRGB">
<feFlood flood-opacity="0" result="BackgroundImageFix"/>
<feColorMatrix in="SourceAlpha" type="matrix" values="0 0 0 0 0 0 0 0 0 0 0 0 0 0 0 0 0 0 127 0" result="hardAlpha"/>
<feOffset dy="1"/>
<feGaussianBlur stdDeviation="1"/>
<feComposite in2="hardAlpha" operator="out"/>
<feColorMatrix type="matrix" values="0 0 0 0 0 0 0 0 0 0 0 0 0 0 0 0 0 0 0.5 0"/>
<feBlend mode="normal" in2="BackgroundImageFix" result="effect1_dropShadow_26_68"/>
<feBlend mode="normal" in="SourceGraphic" in2="effect1_dropShadow_26_68" result="shape"/>
</filter>
</defs>
</svg>
