<svg width="39" height="39" viewBox="0 0 39 39" fill="none" xmlns="http://www.w3.org/2000/svg">
<g filter="url(#filter0_d_26_68)">
<rect x="2.5" y="1.5" width="34" height="34" rx="9.5" stroke="white" shape-rendering="crispEdges"/>
</g>
<path d="M13.1685 26H8.01225V11.4545H13.2111C14.6742 11.4545 15.9337 11.7457 16.9895 12.3281C18.0454 12.9058 18.8574 13.7367 19.4256 14.821C19.9985 15.9053 20.285 17.2027 20.285 18.7131C20.285 20.2282 19.9985 21.5303 19.4256 22.6193C18.8574 23.7083 18.0407 24.544 16.9753 25.1264C15.9147 25.7088 14.6458 26 13.1685 26ZM11.0875 23.3651H13.0407C13.9498 23.3651 14.7144 23.2041 15.3347 22.8821C15.9597 22.5554 16.4284 22.0511 16.7409 21.3693C17.0582 20.6828 17.2168 19.7973 17.2168 18.7131C17.2168 17.6383 17.0582 16.7599 16.7409 16.0781C16.4284 15.3963 15.9621 14.8944 15.3418 14.5724C14.7215 14.2505 13.9569 14.0895 13.0478 14.0895H11.0875V23.3651ZM27.4778 26.2131C26.3556 26.2131 25.3897 25.9858 24.5801 25.5312C23.7752 25.072 23.1549 24.4233 22.7193 23.5852C22.2837 22.7424 22.0659 21.7457 22.0659 20.5952C22.0659 19.473 22.2837 18.4882 22.7193 17.6406C23.1549 16.7931 23.7681 16.1326 24.5588 15.6591C25.3542 15.1856 26.287 14.9489 27.3571 14.9489C28.0768 14.9489 28.7467 15.0649 29.367 15.2969C29.992 15.5241 30.5365 15.8674 31.0005 16.3267C31.4693 16.786 31.8339 17.3636 32.0943 18.0597C32.3547 18.7509 32.4849 19.5606 32.4849 20.4886V21.3196H23.2733V19.4446H29.6369C29.6369 19.009 29.5422 18.6231 29.3528 18.2869C29.1634 17.9508 28.9006 17.688 28.5645 17.4986C28.233 17.3045 27.8471 17.2074 27.4068 17.2074C26.9475 17.2074 26.5403 17.3139 26.1852 17.527C25.8348 17.7353 25.5602 18.017 25.3613 18.3722C25.1625 18.7225 25.0607 19.1132 25.0559 19.544V21.3267C25.0559 21.8665 25.1554 22.3329 25.3542 22.7259C25.5578 23.1188 25.8443 23.4219 26.2136 23.6349C26.5829 23.848 27.0209 23.9545 27.5275 23.9545C27.8637 23.9545 28.1715 23.9072 28.4508 23.8125C28.7302 23.7178 28.9693 23.5758 29.1681 23.3864C29.367 23.197 29.5185 22.965 29.6227 22.6903L32.421 22.875C32.2789 23.5473 31.9877 24.1345 31.5474 24.6364C31.1118 25.1335 30.5484 25.5218 29.8571 25.8011C29.1705 26.0758 28.3774 26.2131 27.4778 26.2131Z" fill="white"/>
<defs>
<filter id="filter0_d_26_68" x="0" y="0" width="39" height="39" filterUnits="userSpaceOnUse" color-interpolation-filters="sRGB">
<feFlood flood-opacity="0" result="BackgroundImageFix"/>
<feColorMatrix in="SourceAlpha" type="matrix" values="0 0 0 0 0 0 0 0 0 0 0 0 0 0 0 0 0 0 127 0" result="hardAlpha"/>
<feOffset dy="1"/>
<feGaussianBlur stdDeviation="1"/>
<feComposite in2="hardAlpha" operator="out"/>
<feColorMatrix type="matrix" values="0 0 0 0 0 0 0 0 0 0 0 0 0 0 0 0 0 0 0.5 0"/>
<feBlend mode="normal" in2="BackgroundImageFix" result="effect1_dropShadow_26_68"/>
<feBlend mode="normal" in="SourceGraphic" in2="effect1_dropShadow_26_68" result="shape"/>
</filter>
</defs>
</svg>
