<svg width="39" height="39" viewBox="0 0 39 39" fill="none" xmlns="http://www.w3.org/2000/svg">
<g filter="url(#filter0_d_26_44)">
<rect x="2.5" y="1.5" width="34" height="34" rx="9.5" stroke="white" shape-rendering="crispEdges"/>
</g>
<path d="M9.52592 26V11.4545H19.3271V13.9901H12.6012V17.456H18.8228V19.9915H12.6012V23.4645H19.3555V26H9.52592ZM30.7919 18.2017L28.022 18.3722C27.9747 18.1354 27.8729 17.9223 27.7166 17.733C27.5604 17.5388 27.3544 17.3849 27.0987 17.2713C26.8478 17.1529 26.5471 17.0938 26.1967 17.0938C25.728 17.0938 25.3326 17.1932 25.0107 17.392C24.6887 17.5862 24.5277 17.8466 24.5277 18.1733C24.5277 18.4337 24.6319 18.6539 24.8402 18.8338C25.0485 19.0137 25.406 19.1581 25.9126 19.267L27.8871 19.6648C28.9477 19.8826 29.7384 20.233 30.2592 20.7159C30.7801 21.1989 31.0405 21.8333 31.0405 22.6193C31.0405 23.3343 30.8298 23.9616 30.4084 24.5014C29.9917 25.0412 29.4188 25.4626 28.6896 25.7656C27.9652 26.0639 27.1295 26.2131 26.1825 26.2131C24.7384 26.2131 23.5878 25.9124 22.7308 25.3111C21.8786 24.705 21.379 23.8812 21.2322 22.8395L24.2081 22.6832C24.2981 23.1236 24.5159 23.4598 24.8615 23.6918C25.2071 23.919 25.6499 24.0327 26.1896 24.0327C26.7199 24.0327 27.1461 23.9309 27.468 23.7273C27.7947 23.5189 27.9605 23.2514 27.9652 22.9247C27.9605 22.6501 27.8445 22.4252 27.6172 22.25C27.3899 22.0701 27.0395 21.9328 26.5661 21.8381L24.6768 21.4616C23.6115 21.2486 22.8184 20.8793 22.2976 20.3537C21.7815 19.8281 21.5234 19.1581 21.5234 18.3438C21.5234 17.643 21.7128 17.0393 22.0916 16.5327C22.4751 16.026 23.0125 15.6354 23.7038 15.3608C24.3999 15.0862 25.2143 14.9489 26.147 14.9489C27.5249 14.9489 28.6091 15.2401 29.3999 15.8224C30.1953 16.4048 30.6593 17.1979 30.7919 18.2017Z" fill="white"/>
<defs>
<filter id="filter0_d_26_44" x="0" y="0" width="39" height="39" filterUnits="userSpaceOnUse" color-interpolation-filters="sRGB">
<feFlood flood-opacity="0" result="BackgroundImageFix"/>
<feColorMatrix in="SourceAlpha" type="matrix" values="0 0 0 0 0 0 0 0 0 0 0 0 0 0 0 0 0 0 127 0" result="hardAlpha"/>
<feOffset dy="1"/>
<feGaussianBlur stdDeviation="1"/>
<feComposite in2="hardAlpha" operator="out"/>
<feColorMatrix type="matrix" values="0 0 0 0 0 0 0 0 0 0 0 0 0 0 0 0 0 0 0.5 0"/>
<feBlend mode="normal" in2="BackgroundImageFix" result="effect1_dropShadow_26_44"/>
<feBlend mode="normal" in="SourceGraphic" in2="effect1_dropShadow_26_44" result="shape"/>
</filter>
</defs>
</svg>
