<svg width="39" height="39" viewBox="0 0 39 39" fill="none" xmlns="http://www.w3.org/2000/svg">
<g filter="url(#filter0_d_26_44)">
<rect x="2.5" y="1.5" width="34" height="34" rx="9.5" stroke="white" shape-rendering="crispEdges"/>
</g>
<path d="M10.8674 26V11.4545H19.3049V12.6477H12.1955V18.1236H18.8574V19.3168H12.1955V24.8068H19.4469V26H10.8674ZM29.8091 17.4844L28.6515 17.8111C28.5378 17.4844 28.3768 17.1884 28.1685 16.9233C27.9602 16.6581 27.6879 16.4474 27.3517 16.2912C27.0203 16.1349 26.6084 16.0568 26.1159 16.0568C25.3773 16.0568 24.7712 16.232 24.2978 16.5824C23.8243 16.9328 23.5875 17.3849 23.5875 17.9389C23.5875 18.4077 23.7485 18.7888 24.0705 19.0824C24.3972 19.3712 24.8991 19.6009 25.5762 19.7713L27.2239 20.1761C28.1377 20.3987 28.8219 20.7514 29.2765 21.2344C29.7357 21.7173 29.9654 22.3234 29.9654 23.0526C29.9654 23.6681 29.7949 24.215 29.454 24.6932C29.1131 25.1714 28.6373 25.5478 28.0265 25.8224C27.4204 26.0923 26.7173 26.2273 25.9171 26.2273C24.8517 26.2273 23.9734 25.9882 23.2821 25.5099C22.5908 25.027 22.1481 24.331 21.954 23.4219L23.1685 23.1236C23.3248 23.7723 23.6301 24.2623 24.0847 24.5938C24.544 24.9252 25.1477 25.0909 25.8958 25.0909C26.7338 25.0909 27.4038 24.9039 27.9057 24.5298C28.4076 24.151 28.6586 23.6776 28.6586 23.1094C28.6586 22.669 28.5118 22.2997 28.2182 22.0014C27.9247 21.6984 27.4796 21.4759 26.883 21.3338L25.1003 20.9077C24.1533 20.6804 23.4526 20.3205 22.998 19.8281C22.5435 19.3357 22.3162 18.7249 22.3162 17.9957C22.3162 17.3944 22.4796 16.8665 22.8063 16.4119C23.133 15.9527 23.5828 15.5928 24.1557 15.3324C24.7286 15.072 25.382 14.9418 26.1159 14.9418C27.115 14.9418 27.9128 15.169 28.5094 15.6236C29.1107 16.0734 29.544 16.6937 29.8091 17.4844Z" fill="white"/>
<defs>
<filter id="filter0_d_26_44" x="0" y="0" width="39" height="39" filterUnits="userSpaceOnUse" color-interpolation-filters="sRGB">
<feFlood flood-opacity="0" result="BackgroundImageFix"/>
<feColorMatrix in="SourceAlpha" type="matrix" values="0 0 0 0 0 0 0 0 0 0 0 0 0 0 0 0 0 0 127 0" result="hardAlpha"/>
<feOffset dy="1"/>
<feGaussianBlur stdDeviation="1"/>
<feComposite in2="hardAlpha" operator="out"/>
<feColorMatrix type="matrix" values="0 0 0 0 0 0 0 0 0 0 0 0 0 0 0 0 0 0 0.5 0"/>
<feBlend mode="normal" in2="BackgroundImageFix" result="effect1_dropShadow_26_44"/>
<feBlend mode="normal" in="SourceGraphic" in2="effect1_dropShadow_26_44" result="shape"/>
</filter>
</defs>
</svg>
