<svg width="77" height="82" viewBox="0 0 77 82" fill="none" xmlns="http://www.w3.org/2000/svg">
<g filter="url(#filter0_d_12_43)">
<path fill-rule="evenodd" clip-rule="evenodd" d="M60.4575 13.3346C58.4168 11.4991 56.0325 10.0863 53.4425 9.17793C50.8525 8.26951 48.1081 7.88346 45.368 8.04209C42.6272 8.18671 39.9423 8.8734 37.4687 10.0624C34.995 11.2514 32.7818 12.9192 30.9569 14.9692C23.2746 23.5538 24.0086 36.7885 32.5933 44.4707C36.4189 47.8997 41.3778 49.7923 46.5153 49.7844C52.2563 49.7844 57.9743 47.4386 62.0948 42.8344C69.7762 34.2515 69.0422 21.0168 60.4575 13.3346ZM60.1236 41.0728C53.415 48.5709 41.8546 49.2125 34.3556 42.5004C26.8567 35.7901 26.216 24.2305 32.9255 16.7324C34.5194 14.9416 36.4526 13.4847 38.6133 12.446C40.774 11.4073 43.1193 10.8075 45.5133 10.6813C45.8597 10.6628 46.2033 10.6531 46.547 10.6531C51.0402 10.6531 55.3193 12.2842 58.6943 15.304C66.1933 22.0152 66.8339 33.5747 60.1236 41.0728Z" fill="url(#paint0_linear_12_43)"/>
<path fill-rule="evenodd" clip-rule="evenodd" d="M35.2738 18.7944C35.1534 18.923 35.0598 19.0743 34.9987 19.2395C34.9375 19.4046 34.91 19.5804 34.9178 19.7564C34.9255 19.9323 34.9683 20.105 35.0437 20.2642C35.1191 20.4234 35.2256 20.5659 35.3568 20.6833C35.4881 20.8008 35.6415 20.8908 35.8081 20.9482C35.9746 21.0055 36.151 21.0289 36.3267 21.0172C36.5025 21.0054 36.6741 20.9586 36.8315 20.8795C36.9889 20.8005 37.1289 20.6908 37.2433 20.5568C41.8467 15.4133 49.7739 14.9745 54.9175 19.5761C55.046 19.6965 55.1973 19.7901 55.3625 19.8512C55.5277 19.9124 55.7034 19.9399 55.8794 19.9322C56.0554 19.9244 56.228 19.8816 56.3872 19.8062C56.5464 19.7308 56.6889 19.6243 56.8064 19.4931C56.9238 19.3618 57.0139 19.2084 57.0712 19.0418C57.1285 18.8753 57.152 18.699 57.1402 18.5232C57.1284 18.3475 57.0816 18.1758 57.0026 18.0184C56.9235 17.861 56.8138 17.721 56.6799 17.6066C50.4498 12.0321 40.8474 12.5662 35.2738 18.7944Z" fill="url(#paint1_linear_12_43)"/>
<path fill-rule="evenodd" clip-rule="evenodd" d="M74.6325 27.2002C74.1839 19.7171 70.8486 12.8578 65.2407 7.88348C59.6327 2.90912 52.4299 0.424151 44.9397 0.86563C37.4574 1.31416 30.5973 4.64949 25.6239 10.2574C15.6531 21.4988 16.3704 38.5808 27.0206 48.9622L22.4621 54.163L21.0002 52.8668C20.739 52.6342 20.3961 52.5149 20.047 52.535C19.6978 52.5552 19.371 52.7132 19.1383 52.9743L3.27673 70.6995C3.04336 70.9609 2.92317 71.3042 2.94249 71.654C2.96182 72.0039 3.11909 72.3318 3.37983 72.5659L8.363 77.0257C8.49221 77.1417 8.64307 77.2311 8.80692 77.2887C8.97076 77.3463 9.14437 77.3709 9.31778 77.3613C9.49118 77.3516 9.66097 77.3078 9.81741 77.2324C9.97384 77.1569 10.1138 77.0513 10.2294 76.9217L26.112 59.1735C26.2281 59.0438 26.3174 58.8925 26.3748 58.7282C26.4322 58.564 26.4566 58.39 26.4466 58.2162C26.4367 58.0425 26.3925 57.8724 26.3166 57.7158C26.2407 57.5592 26.1347 57.4191 26.0045 57.3036L24.4404 55.9166L28.9962 50.7193C33.967 54.7559 40.178 56.9544 46.5814 56.9441C47.1515 56.9441 47.7251 56.9264 48.2988 56.8921C55.781 56.4427 62.6412 53.1073 67.6155 47.4994C72.5899 41.8915 75.081 34.6833 74.6325 27.2002ZM9.14109 74.1741L6.12828 71.4776L20.2309 55.7183L23.257 58.4016L9.14109 74.1741ZM65.6372 45.7458C61.1317 50.8259 54.9175 53.8467 48.1402 54.2529C41.3638 54.6706 34.8324 52.4015 29.7523 47.8968C19.266 38.5958 18.3011 22.4972 27.6022 12.011C32.1077 6.9309 38.3219 3.91016 45.0992 3.50393C45.6191 3.47221 46.1372 3.45723 46.6545 3.45723C52.8704 3.45723 58.7974 5.70075 63.488 9.86088C68.5681 14.3664 71.5888 20.5806 71.995 27.3579C72.4004 34.1361 70.1419 40.6666 65.6372 45.7458Z" fill="url(#paint2_linear_12_43)"/>
</g>
<defs>
<filter id="filter0_d_12_43" x="0.940475" y="0.815491" width="75.7435" height="80.5479" filterUnits="userSpaceOnUse" color-interpolation-filters="sRGB">
<feFlood flood-opacity="0" result="BackgroundImageFix"/>
<feColorMatrix in="SourceAlpha" type="matrix" values="0 0 0 0 0 0 0 0 0 0 0 0 0 0 0 0 0 0 127 0" result="hardAlpha"/>
<feOffset dy="2"/>
<feGaussianBlur stdDeviation="1"/>
<feComposite in2="hardAlpha" operator="out"/>
<feColorMatrix type="matrix" values="0 0 0 0 0 0 0 0 0 0 0 0 0 0 0 0 0 0 0.25 0"/>
<feBlend mode="normal" in2="BackgroundImageFix" result="effect1_dropShadow_12_43"/>
<feBlend mode="normal" in="SourceGraphic" in2="effect1_dropShadow_12_43" result="shape"/>
</filter>
<linearGradient id="paint0_linear_12_43" x1="38.8122" y1="0.815491" x2="38.8122" y2="77.3633" gradientUnits="userSpaceOnUse">
<stop stop-color="#0F6D7E"/>
<stop offset="1" stop-color="#5EB7C6"/>
</linearGradient>
<linearGradient id="paint1_linear_12_43" x1="38.8122" y1="0.815491" x2="38.8122" y2="77.3633" gradientUnits="userSpaceOnUse">
<stop stop-color="#0F6D7E"/>
<stop offset="1" stop-color="#5EB7C6"/>
</linearGradient>
<linearGradient id="paint2_linear_12_43" x1="38.8122" y1="0.815491" x2="38.8122" y2="77.3633" gradientUnits="userSpaceOnUse">
<stop stop-color="#0F6D7E"/>
<stop offset="1" stop-color="#5EB7C6"/>
</linearGradient>
</defs>
</svg>
