<svg width="76" height="68" viewBox="0 0 76 68" fill="none" xmlns="http://www.w3.org/2000/svg">
<g filter="url(#filter0_d_12_39)">
<path fill-rule="evenodd" clip-rule="evenodd" d="M49.1105 47.8981C48.7599 47.8981 48.4237 48.0373 48.1759 48.2852C47.928 48.5331 47.7887 48.8693 47.7887 49.2199V61.3011H4.64359V4.37756H47.7887V14.4232C47.7887 14.7738 47.928 15.11 48.1759 15.3579C48.4237 15.6057 48.7599 15.745 49.1105 15.745C49.4611 15.745 49.7973 15.6057 50.0452 15.3579C50.293 15.11 50.4323 14.7738 50.4323 14.4232V3.05577C50.4323 2.70521 50.293 2.36901 50.0452 2.12112C49.7973 1.87324 49.4611 1.73398 49.1105 1.73398H3.32179C2.97123 1.73398 2.63503 1.87324 2.38714 2.12112C2.13926 2.36901 2 2.70521 2 3.05577V62.6229C2 62.9734 2.13926 63.3096 2.38714 63.5575C2.63503 63.8054 2.97123 63.9447 3.32179 63.9447H49.1105C49.4611 63.9447 49.7973 63.8054 50.0452 63.5575C50.293 63.3096 50.4323 62.9734 50.4323 62.6229V49.2199C50.4323 48.8693 50.293 48.5331 50.0452 48.2852C49.7973 48.0373 49.4611 47.8981 49.1105 47.8981Z" fill="url(#paint0_linear_12_39)"/>
<path fill-rule="evenodd" clip-rule="evenodd" d="M73.3231 5.43236C73.2526 5.08883 73.0484 4.7874 72.7556 4.59434L66.1194 0.218318C65.9743 0.122687 65.8119 0.0565813 65.6413 0.0237791C65.4707 -0.00902317 65.2953 -0.00787795 65.1252 0.0271498C64.955 0.0621775 64.7935 0.130401 64.6497 0.227918C64.5059 0.325435 64.3828 0.450333 64.2873 0.59547L59.4293 7.97725L59.4284 7.97813L33.7037 46.9834C33.6808 47.0178 33.6658 47.0557 33.6473 47.0909C33.627 47.1279 33.605 47.1632 33.5882 47.2019C33.5619 47.2681 33.5407 47.3361 33.5248 47.4055C33.5213 47.4205 33.5151 47.4328 33.5116 47.4478L33.5107 47.4531C33.5097 47.4572 33.5088 47.4613 33.508 47.4654L31.4055 57.8521C31.3527 58.1105 31.3784 58.3789 31.4794 58.6226C31.5805 58.8663 31.7522 59.0742 31.9724 59.2194C32.1927 59.3647 32.4513 59.4406 32.7151 59.4375C32.9789 59.4344 33.2358 59.3524 33.4525 59.2021L42.1905 53.1676C42.2196 53.1474 42.2425 53.1227 42.2698 53.1007C42.2971 53.0786 42.3244 53.0575 42.35 53.0328C42.4152 52.9713 42.4736 52.9031 42.5245 52.8293C42.5297 52.8213 42.5377 52.816 42.543 52.8081L42.5509 52.7958L42.5571 52.7861L68.2598 13.8028L68.2615 13.8011L73.131 6.42546C73.3242 6.13299 73.3933 5.77577 73.3231 5.43236ZM35.7146 49.8913L39.0754 52.1067L34.6466 55.1653L35.7146 49.8913ZM41.0634 50.25L36.6389 47.3341L60.9088 10.5336L65.3272 13.4477L41.0634 50.25ZM66.7829 11.2421L62.3637 8.32621L65.7686 3.1527L70.1958 6.0721L66.7829 11.2421ZM34.8025 18.4344C35.1531 18.4344 35.4893 18.2951 35.7372 18.0473C35.9851 17.7994 36.1243 17.4632 36.1243 17.1126C36.1243 16.7621 35.9851 16.4258 35.7372 16.178C35.4893 15.9301 35.1531 15.7908 34.8025 15.7908H10.2119C9.8613 15.7908 9.5251 15.9301 9.27722 16.178C9.02933 16.4258 8.89007 16.7621 8.89007 17.1126C8.89007 17.4632 9.02933 17.7994 9.27722 18.0473C9.5251 18.2951 9.8613 18.4344 10.2119 18.4344H34.8025ZM10.5194 29.3233H35.1039C35.4545 29.3233 35.7907 29.1841 36.0385 28.9362C36.2864 28.6883 36.4257 28.3521 36.4257 28.0016C36.4257 27.651 36.2864 27.3148 36.0385 27.0669C35.7907 26.819 35.4545 26.6798 35.1039 26.6798H10.5194C10.1688 26.6798 9.83264 26.819 9.58476 27.0669C9.33687 27.3148 9.19761 27.651 9.19761 28.0016C9.19761 28.3521 9.33687 28.6883 9.58476 28.9362C9.83264 29.1841 10.1688 29.3233 10.5194 29.3233Z" fill="url(#paint1_linear_12_39)"/>
</g>
<defs>
<filter id="filter0_d_12_39" x="0" y="0" width="75.3499" height="67.9446" filterUnits="userSpaceOnUse" color-interpolation-filters="sRGB">
<feFlood flood-opacity="0" result="BackgroundImageFix"/>
<feColorMatrix in="SourceAlpha" type="matrix" values="0 0 0 0 0 0 0 0 0 0 0 0 0 0 0 0 0 0 127 0" result="hardAlpha"/>
<feOffset dy="2"/>
<feGaussianBlur stdDeviation="1"/>
<feComposite in2="hardAlpha" operator="out"/>
<feColorMatrix type="matrix" values="0 0 0 0 0 0 0 0 0 0 0 0 0 0 0 0 0 0 0.25 0"/>
<feBlend mode="normal" in2="BackgroundImageFix" result="effect1_dropShadow_12_39"/>
<feBlend mode="normal" in="SourceGraphic" in2="effect1_dropShadow_12_39" result="shape"/>
</filter>
<linearGradient id="paint0_linear_12_39" x1="37.6749" y1="0" x2="37.6749" y2="63.9447" gradientUnits="userSpaceOnUse">
<stop stop-color="#0F6D7E"/>
<stop offset="1" stop-color="#5EB7C6"/>
</linearGradient>
<linearGradient id="paint1_linear_12_39" x1="37.6749" y1="0" x2="37.6749" y2="63.9447" gradientUnits="userSpaceOnUse">
<stop stop-color="#0F6D7E"/>
<stop offset="1" stop-color="#5EB7C6"/>
</linearGradient>
</defs>
</svg>
