<svg width="70" height="72" viewBox="0 0 70 72" fill="none" xmlns="http://www.w3.org/2000/svg">
<g filter="url(#filter0_d_12_42)">
<path fill-rule="evenodd" clip-rule="evenodd" d="M66.8765 6.83447C66.7101 6.76 66.53 6.72099 66.3477 6.71992C65.7213 6.73937 65.0977 6.6281 64.5166 6.3932C63.9356 6.15829 63.4099 5.80491 62.973 5.35556C62.5361 4.90622 62.1976 4.37078 61.979 3.78337C61.7605 3.19596 61.6668 2.56947 61.7038 1.94383C61.7038 1.59327 61.5646 1.25707 61.3167 1.00918C61.0688 0.7613 60.7326 0.62204 60.382 0.62204H20.7282C20.3777 0.62204 20.0415 0.7613 19.7936 1.00918C19.5457 1.25707 19.4064 1.59327 19.4064 1.94383V12.9588H3.98549C3.63493 12.9588 3.29873 13.098 3.05084 13.3459C2.80296 13.5938 2.6637 13.93 2.6637 14.2806V59.2216C2.66603 61.4411 3.54876 63.569 5.11819 65.1385C6.68762 66.7079 8.81555 67.5906 11.0351 67.5929H49.8077C50.1582 67.5929 50.4945 67.4537 50.7423 67.2058C50.9902 66.9579 51.1295 66.6217 51.1295 66.2712V54.375H66.5504C66.901 54.375 67.2372 54.2357 67.4851 53.9879C67.7329 53.74 67.8722 53.4038 67.8722 53.0532V8.11221C67.8715 7.81894 67.7733 7.53424 67.593 7.30293C67.4127 7.07161 67.1607 6.90681 66.8765 6.83447ZM65.2286 9.2842V50.2863L61.7038 46.2592V7.77735C62.7256 8.58116 63.9415 9.10095 65.2286 9.2842ZM26.8966 51.7314C25.8422 51.7297 24.8171 51.3848 23.9761 50.7489C23.1351 50.113 22.524 49.2206 22.2351 48.2066H59.8974L62.9816 51.7314H26.8966ZM22.05 3.26563H59.0602V45.563H22.05V3.26563ZM5.30728 15.6024H19.4064V46.8848C19.4088 48.8706 20.1986 50.7744 21.6028 52.1786C23.007 53.5828 24.9108 54.3727 26.8966 54.375H42.3175V57.8998H5.30728V15.6024ZM5.4659 60.5434H42.9432L46.8028 64.9494H11.0351C9.74688 64.9469 8.49703 64.5109 7.48678 63.7117C6.47653 62.9124 5.76469 61.7964 5.4659 60.5434ZM48.4859 62.8609L44.9611 58.8339V54.375H48.4859V62.8609Z" fill="url(#paint0_linear_12_42)"/>
<path fill-rule="evenodd" clip-rule="evenodd" d="M30.4214 35.8699H50.6889C51.0394 35.8699 51.3756 35.7306 51.6235 35.4827C51.8714 35.2349 52.0107 34.8987 52.0107 34.5481V14.2806C52.0107 13.93 51.8714 13.5938 51.6235 13.3459C51.3756 13.098 51.0394 12.9588 50.6889 12.9588H30.4214C30.0708 12.9588 29.7346 13.098 29.4867 13.3459C29.2388 13.5938 29.0996 13.93 29.0996 14.2806V34.5481C29.0996 34.8987 29.2388 35.2349 29.4867 35.4827C29.7346 35.7306 30.0708 35.8699 30.4214 35.8699ZM31.7432 15.6024H49.3671V33.2263H31.7432V15.6024Z" fill="url(#paint1_linear_12_42)"/>
</g>
<defs>
<filter id="filter0_d_12_42" x="0.663696" y="0.62204" width="69.2085" height="70.9709" filterUnits="userSpaceOnUse" color-interpolation-filters="sRGB">
<feFlood flood-opacity="0" result="BackgroundImageFix"/>
<feColorMatrix in="SourceAlpha" type="matrix" values="0 0 0 0 0 0 0 0 0 0 0 0 0 0 0 0 0 0 127 0" result="hardAlpha"/>
<feOffset dy="2"/>
<feGaussianBlur stdDeviation="1"/>
<feComposite in2="hardAlpha" operator="out"/>
<feColorMatrix type="matrix" values="0 0 0 0 0 0 0 0 0 0 0 0 0 0 0 0 0 0 0.25 0"/>
<feBlend mode="normal" in2="BackgroundImageFix" result="effect1_dropShadow_12_42"/>
<feBlend mode="normal" in="SourceGraphic" in2="effect1_dropShadow_12_42" result="shape"/>
</filter>
<linearGradient id="paint0_linear_12_42" x1="35.268" y1="0.62204" x2="35.268" y2="67.5929" gradientUnits="userSpaceOnUse">
<stop stop-color="#0F6D7E"/>
<stop offset="1" stop-color="#5EB7C6"/>
</linearGradient>
<linearGradient id="paint1_linear_12_42" x1="35.268" y1="0.62204" x2="35.268" y2="67.5929" gradientUnits="userSpaceOnUse">
<stop stop-color="#0F6D7E"/>
<stop offset="1" stop-color="#5EB7C6"/>
</linearGradient>
</defs>
</svg>
