<svg width="83" height="82" viewBox="0 0 83 82" fill="none" xmlns="http://www.w3.org/2000/svg">
<g filter="url(#filter0_d_12_41)">
<path fill-rule="evenodd" clip-rule="evenodd" d="M79.8588 47.4505L73.338 43.0445V29.8265L79.8588 25.5087C80.2113 25.2443 80.4757 24.8918 80.4757 24.4512C80.4757 24.0106 80.2113 23.57 79.8588 23.3938L46.2853 0.835171C45.8447 0.570812 45.2278 0.570812 44.7872 0.835171L3.371 28.5047C3.19476 28.5929 3.10664 28.681 3.01852 28.8572V28.9453C2.84228 29.2097 2.84229 29.3859 2.84229 29.6503V53.8832C2.84229 54.3238 3.10664 54.7644 3.45912 54.9406L37.0327 77.323C37.2971 77.4992 37.4733 77.5874 37.7377 77.5874C38.002 77.5874 38.2664 77.4992 38.4426 77.323L79.9469 49.6534C80.2994 49.3891 80.5638 49.0366 80.5638 48.596C80.4757 48.0673 80.2113 47.6267 79.8588 47.4505ZM45.5803 3.56688L76.7746 24.3631L71.6637 27.7117C71.3993 27.7998 71.135 27.976 70.9587 28.1523L37.6495 50.3584L12.6236 33.7038C12.5354 33.6157 12.4473 33.6157 12.4473 33.5275L6.45519 29.5622L45.5803 3.56688ZM13.0642 37.2286L36.8565 53.0901C37.2971 53.3545 37.9139 53.3545 38.3545 53.0901L70.6944 31.5008V42.3395L37.8258 64.0169L13.0642 48.1554V37.2286ZM37.6495 74.5913L5.39775 53.0901V32.1176L10.5087 35.4662V48.8604C10.5087 49.301 10.7731 49.7416 11.1255 50.0059L37.2089 66.7486C37.3852 66.9249 37.6495 66.9249 37.9139 66.9249C38.1782 66.9249 38.4426 66.8368 38.6188 66.7486L71.5756 45.0712L76.7746 48.596L37.6495 74.5913Z" fill="url(#paint0_linear_12_41)"/>
<path fill-rule="evenodd" clip-rule="evenodd" d="M39.8525 15.6393L55.5378 26.3899C55.8022 26.5661 56.0665 26.6542 56.2428 26.6542C56.6834 26.6542 57.0359 26.478 57.3002 26.0374C57.7408 25.4205 57.5646 24.6275 56.9477 24.1869L41.3506 13.4363C40.7337 12.9957 39.9406 13.1719 39.5 13.7888C39.0594 14.4056 39.2357 15.1987 39.8525 15.6393Z" fill="url(#paint1_linear_12_41)"/>
</g>
<defs>
<filter id="filter0_d_12_41" x="0.842285" y="0.636902" width="81.7215" height="80.9504" filterUnits="userSpaceOnUse" color-interpolation-filters="sRGB">
<feFlood flood-opacity="0" result="BackgroundImageFix"/>
<feColorMatrix in="SourceAlpha" type="matrix" values="0 0 0 0 0 0 0 0 0 0 0 0 0 0 0 0 0 0 127 0" result="hardAlpha"/>
<feOffset dy="2"/>
<feGaussianBlur stdDeviation="1"/>
<feComposite in2="hardAlpha" operator="out"/>
<feColorMatrix type="matrix" values="0 0 0 0 0 0 0 0 0 0 0 0 0 0 0 0 0 0 0.25 0"/>
<feBlend mode="normal" in2="BackgroundImageFix" result="effect1_dropShadow_12_41"/>
<feBlend mode="normal" in="SourceGraphic" in2="effect1_dropShadow_12_41" result="shape"/>
</filter>
<linearGradient id="paint0_linear_12_41" x1="41.703" y1="0.636902" x2="41.703" y2="77.5874" gradientUnits="userSpaceOnUse">
<stop stop-color="#0F6D7E"/>
<stop offset="1" stop-color="#5EB7C6"/>
</linearGradient>
<linearGradient id="paint1_linear_12_41" x1="41.703" y1="0.636902" x2="41.703" y2="77.5874" gradientUnits="userSpaceOnUse">
<stop stop-color="#0F6D7E"/>
<stop offset="1" stop-color="#5EB7C6"/>
</linearGradient>
</defs>
</svg>
