<svg width="66" height="83" viewBox="0 0 66 83" fill="none" xmlns="http://www.w3.org/2000/svg">
<g filter="url(#filter0_d_12_40)">
<path fill-rule="evenodd" clip-rule="evenodd" d="M8.33727 13.1078L18.1309 17.4609C16.2125 20.3218 15.186 23.6875 15.1815 27.1321C15.1815 36.7089 22.9731 44.5013 32.5499 44.5013C42.1276 44.5013 49.9192 36.7089 49.9192 27.1321C49.9139 23.7228 48.908 20.3901 47.0262 17.5473L56.2312 13.4568V29.9369L53.7612 35.4973C53.6711 35.6985 53.6328 35.9191 53.65 36.139C53.6671 36.3588 53.739 36.5709 53.8591 36.7558C53.9793 36.9407 54.1438 37.0925 54.3377 37.1975C54.5317 37.3024 54.7488 37.3571 54.9693 37.3566H59.9692C60.1867 37.3567 60.4008 37.3031 60.5927 37.2006C60.7845 37.0981 60.9481 36.9498 61.0689 36.769C61.1897 36.5881 61.264 36.3802 61.2852 36.1638C61.3064 35.9473 61.2739 35.729 61.1905 35.5281L58.8756 29.9554V12.2425C58.8756 11.8919 58.7364 11.5557 58.4885 11.3078C58.2406 11.06 57.9044 10.9207 57.5538 10.9207C57.493 10.9207 57.4358 10.9304 57.3767 10.9383C57.2715 10.8368 57.1499 10.7537 57.0172 10.6925L33.2126 0.113706C33.0434 0.0387328 32.8605 0 32.6755 0C32.4905 0 32.3075 0.0387328 32.1384 0.113706L8.33727 10.6925C8.10374 10.7964 7.90533 10.9657 7.76609 11.1801C7.62685 11.3944 7.55274 11.6445 7.55274 11.9001C7.55274 12.1557 7.62685 12.4059 7.76609 12.6202C7.90533 12.8346 8.10374 13.0039 8.33727 13.1078ZM47.2764 26.8184C47.2764 34.9386 40.6701 41.544 32.5508 41.544C24.4314 41.544 17.826 34.9386 17.826 26.8184C17.8313 23.7407 18.7991 20.7418 20.5938 18.2417L32.1393 23.3729C32.3083 23.4477 32.4911 23.4864 32.6759 23.4864C32.8608 23.4864 33.0435 23.4477 33.2126 23.3729L44.5694 18.3263C46.3258 20.8101 47.2713 23.7763 47.2764 26.8184ZM57.0031 34.713L57.5133 33.5657L57.99 34.713H57.0031ZM32.6759 2.45416L53.2254 11.586L32.6759 20.7178L12.1299 11.586L32.6759 2.45416ZM33.0548 47.3159C16.4469 47.3159 2.93378 60.8202 2.91968 77.4255C2.9188 78.1648 3.50215 78.7728 4.24147 78.7728H61.8664C62.6057 78.7728 63.1891 78.1657 63.1882 77.4255C63.1741 60.8202 49.661 47.3159 33.0548 47.3159ZM5.59499 76.1292C6.28761 61.5815 18.3388 49.9594 33.0548 49.9594C47.7699 49.9594 59.8212 61.5815 60.5138 76.1292H5.59499Z" fill="url(#paint0_linear_12_40)"/>
</g>
<defs>
<filter id="filter0_d_12_40" x="0.919678" y="0" width="64.2685" height="82.7728" filterUnits="userSpaceOnUse" color-interpolation-filters="sRGB">
<feFlood flood-opacity="0" result="BackgroundImageFix"/>
<feColorMatrix in="SourceAlpha" type="matrix" values="0 0 0 0 0 0 0 0 0 0 0 0 0 0 0 0 0 0 127 0" result="hardAlpha"/>
<feOffset dy="2"/>
<feGaussianBlur stdDeviation="1"/>
<feComposite in2="hardAlpha" operator="out"/>
<feColorMatrix type="matrix" values="0 0 0 0 0 0 0 0 0 0 0 0 0 0 0 0 0 0 0.25 0"/>
<feBlend mode="normal" in2="BackgroundImageFix" result="effect1_dropShadow_12_40"/>
<feBlend mode="normal" in="SourceGraphic" in2="effect1_dropShadow_12_40" result="shape"/>
</filter>
<linearGradient id="paint0_linear_12_40" x1="33.0539" y1="0" x2="33.0539" y2="78.7728" gradientUnits="userSpaceOnUse">
<stop stop-color="#0F6D7E"/>
<stop offset="1" stop-color="#5EB7C6"/>
</linearGradient>
</defs>
</svg>
