<svg width="76" height="79" viewBox="0 0 76 79" fill="none" xmlns="http://www.w3.org/2000/svg">
<g filter="url(#filter0_d_12_38)">
<path fill-rule="evenodd" clip-rule="evenodd" d="M32.2541 29.9579C40.444 29.9579 47.1058 23.2961 47.1058 15.1071C47.1058 6.91993 40.4431 0.258972 32.2541 0.258972C24.0678 0.258972 17.4077 6.91993 17.4077 15.1071C17.4077 23.2961 24.0678 29.9579 32.2541 29.9579ZM32.2541 2.90344C38.9865 2.90344 44.4622 8.37831 44.4622 15.108C44.4622 21.8395 38.9856 27.3152 32.2541 27.3152C25.5253 27.3152 20.0513 21.8395 20.0513 15.108C20.0513 8.37831 25.5253 2.90344 32.2541 2.90344Z" fill="url(#paint0_linear_12_38)"/>
<path fill-rule="evenodd" clip-rule="evenodd" d="M72.3829 57.0353H68.4316V36.744C68.4316 36.4056 68.303 36.0814 68.0695 35.8355L64.8328 32.4165C65.8471 30.3765 65.3986 27.8325 63.5851 26.2983L59.981 23.2485C59.4742 22.8179 58.8872 22.4919 58.2538 22.2892C57.6204 22.0866 56.9532 22.0113 56.2905 22.0677C55.6268 22.1209 54.9803 22.3054 54.3884 22.6103C53.7965 22.9153 53.271 23.3347 52.8424 23.8442C51.9771 24.8705 51.5539 26.1979 51.6655 27.5357C51.7772 28.8734 52.4146 30.1124 53.4381 30.981L57.0413 34.0326C57.9546 34.8058 59.113 35.2294 60.3097 35.2275C61.279 35.2275 62.2412 34.9446 63.074 34.4036L65.7881 37.271V57.0371H58.2759C57.9313 43.2129 46.5859 32.0702 32.6798 32.0702C18.7754 32.0702 7.43173 43.2129 7.08718 57.0371H3.79503C3.44447 57.0371 3.10826 57.1763 2.86038 57.4242C2.6125 57.6721 2.47324 58.0083 2.47324 58.3589V72.8343C2.47324 73.1848 2.6125 73.521 2.86038 73.7689C3.10826 74.0168 3.44447 74.1561 3.79503 74.1561H72.3829C72.7335 74.1561 73.0697 74.0168 73.3176 73.7689C73.5655 73.521 73.7047 73.1848 73.7047 72.8343V58.3589C73.7047 57.6275 73.1126 57.0353 72.3829 57.0353ZM58.7491 32.0129L55.1459 28.9613C54.6566 28.546 54.3519 27.9537 54.2986 27.3141C54.2452 26.6746 54.4475 26.0399 54.8612 25.5493C55.0879 25.2793 55.3714 25.0625 55.6914 24.9145C56.0114 24.7665 56.36 24.6908 56.7126 24.6928C57.2836 24.6928 57.8326 24.8928 58.2732 25.2656L61.8773 28.3154C62.3666 28.731 62.6711 29.3236 62.7241 29.9633C62.7771 30.6031 62.5743 31.2378 62.1602 31.7282C61.7449 32.2173 61.1527 32.5218 60.5134 32.5751C59.8741 32.6285 59.2397 32.4263 58.7491 32.0129ZM32.6798 34.7111C45.1284 34.7111 55.2886 44.6677 55.6323 57.0344H9.73077C10.0736 44.6686 20.2329 34.7111 32.6798 34.7111ZM71.0611 71.5107H5.11682V59.6789H71.0611V71.5107Z" fill="url(#paint1_linear_12_38)"/>
</g>
<defs>
<filter id="filter0_d_12_38" x="0.473236" y="0.258972" width="75.2315" height="77.8971" filterUnits="userSpaceOnUse" color-interpolation-filters="sRGB">
<feFlood flood-opacity="0" result="BackgroundImageFix"/>
<feColorMatrix in="SourceAlpha" type="matrix" values="0 0 0 0 0 0 0 0 0 0 0 0 0 0 0 0 0 0 127 0" result="hardAlpha"/>
<feOffset dy="2"/>
<feGaussianBlur stdDeviation="1"/>
<feComposite in2="hardAlpha" operator="out"/>
<feColorMatrix type="matrix" values="0 0 0 0 0 0 0 0 0 0 0 0 0 0 0 0 0 0 0.25 0"/>
<feBlend mode="normal" in2="BackgroundImageFix" result="effect1_dropShadow_12_38"/>
<feBlend mode="normal" in="SourceGraphic" in2="effect1_dropShadow_12_38" result="shape"/>
</filter>
<linearGradient id="paint0_linear_12_38" x1="38.089" y1="0.258972" x2="38.089" y2="74.1561" gradientUnits="userSpaceOnUse">
<stop stop-color="#0F6D7E"/>
<stop offset="1" stop-color="#5EB7C6"/>
</linearGradient>
<linearGradient id="paint1_linear_12_38" x1="38.089" y1="0.258972" x2="38.089" y2="74.1561" gradientUnits="userSpaceOnUse">
<stop stop-color="#0F6D7E"/>
<stop offset="1" stop-color="#5EB7C6"/>
</linearGradient>
</defs>
</svg>
