<svg width="30" height="19" viewBox="0 0 30 19" fill="none" xmlns="http://www.w3.org/2000/svg">
<path d="M0 1.5C0 0.671573 0.671573 0 1.5 0H28.5C29.3284 0 30 0.671573 30 1.5C30 2.32843 29.3284 3 28.5 3H1.5C0.671573 3 0 2.32843 0 1.5Z" fill="url(#paint0_linear_14_20)"/>
<path d="M0 9.5C0 8.67157 0.671573 8 1.5 8H28.5C29.3284 8 30 8.67157 30 9.5C30 10.3284 29.3284 11 28.5 11H1.5C0.671573 11 0 10.3284 0 9.5Z" fill="url(#paint1_linear_14_20)"/>
<path d="M0 17.5C0 16.6716 0.671573 16 1.5 16H28.5C29.3284 16 30 16.6716 30 17.5C30 18.3284 29.3284 19 28.5 19H1.5C0.671573 19 0 18.3284 0 17.5Z" fill="url(#paint2_linear_14_20)"/>
<defs>
<linearGradient id="paint0_linear_14_20" x1="30" y1="9.5" x2="0" y2="9.5" gradientUnits="userSpaceOnUse">
<stop stop-color="#0F6D7E"/>
<stop offset="1" stop-color="#5EB7C6"/>
</linearGradient>
<linearGradient id="paint1_linear_14_20" x1="30" y1="9.5" x2="0" y2="9.5" gradientUnits="userSpaceOnUse">
<stop stop-color="#0F6D7E"/>
<stop offset="1" stop-color="#5EB7C6"/>
</linearGradient>
<linearGradient id="paint2_linear_14_20" x1="30" y1="9.5" x2="0" y2="9.5" gradientUnits="userSpaceOnUse">
<stop stop-color="#0F6D7E"/>
<stop offset="1" stop-color="#5EB7C6"/>
</linearGradient>
</defs>
</svg>
